<?xml version="1.0" encoding="UTF-8" standalone="no"?>
<!-- Generated by graphviz version 2.43.0 (0)
 -->

<!-- Title: %3 Pages: 1 -->

<svg
   xmlns:dc="http://purl.org/dc/elements/1.1/"
   xmlns:cc="http://creativecommons.org/ns#"
   xmlns:rdf="http://www.w3.org/1999/02/22-rdf-syntax-ns#"
   xmlns:svg="http://www.w3.org/2000/svg"
   xmlns="http://www.w3.org/2000/svg"
   xmlns:sodipodi="http://sodipodi.sourceforge.net/DTD/sodipodi-0.dtd"
   xmlns:inkscape="http://www.inkscape.org/namespaces/inkscape"
   width="840"
   height="840"
   viewBox="0 0 629.75693 629.99998"
   version="1.1"
   id="svg1027"
   sodipodi:docname="fruition.svg"
   inkscape:version="0.92.5 (2060ec1f9f, 2020-04-08)"
   inkscape:export-filename="/home/boss/src/multiblog/content/images/balladeer-fruition.png"
   inkscape:export-xdpi="95.800003"
   inkscape:export-ydpi="95.800003">
  <metadata
     id="metadata1033">
    <rdf:RDF>
      <cc:Work
         rdf:about="">
        <dc:format>image/svg+xml</dc:format>
        <dc:type
           rdf:resource="http://purl.org/dc/dcmitype/StillImage" />
        <dc:title></dc:title>
      </cc:Work>
    </rdf:RDF>
  </metadata>
  <defs
     id="defs1031" />
  <sodipodi:namedview
     pagecolor="#ffffff"
     bordercolor="#666666"
     borderopacity="1"
     objecttolerance="10"
     gridtolerance="10"
     guidetolerance="10"
     inkscape:pageopacity="0"
     inkscape:pageshadow="2"
     inkscape:window-width="1920"
     inkscape:window-height="1135"
     id="namedview1029"
     showgrid="false"
     inkscape:zoom="1.0971774"
     inkscape:cx="414.66667"
     inkscape:cy="424.68398"
     inkscape:window-x="0"
     inkscape:window-y="0"
     inkscape:window-maximized="1"
     inkscape:current-layer="svg1027"
     units="px" />
  <polygon
     style="fill:#ffffff"
     id="polygon817"
     points="-4,-616 617.76,-616 617.76,4 -4,4 "
     stroke="transparent"
     transform="translate(8.5,621.49996)" />
  <g
     class="node"
     id="node1"
     transform="translate(8.5,621.49996)">
    <title
       id="title819">Inception</title>
    <polygon
       style="fill:none;stroke:#000000"
       id="polygon821"
       points="161,-612 161,-540 244,-540 244,-612 " />
    <text
       style="font-size:16px;font-family:'Cabin Sketch';text-anchor:middle"
       id="text823"
       font-size="16.00"
       y="-572.20001"
       x="202.5">Inception</text>
  </g>
  <g
     class="node"
     id="node2"
     transform="translate(8.5,621.49996)">
    <title
       id="title826">Elaboration</title>
    <polygon
       style="fill:none;stroke:#000000"
       id="polygon828"
       points="154,-504 154,-432 251,-432 251,-504 " />
    <text
       style="font-size:16px;font-family:'Cabin Sketch';text-anchor:middle"
       id="text830"
       font-size="16.00"
       y="-464.20001"
       x="202.5">Elaboration</text>
  </g>
  <g
     class="edge"
     id="edge1"
     transform="translate(8.5,621.49996)">
    <title
       id="title833">Inception:c-&gt;Elaboration:c</title>
    <path
       style="fill:none;stroke:#000000"
       inkscape:connector-curvature="0"
       id="path835"
       d="m 202.5,-539.74 c 0,0 0,29.39 0,29.39" />
    <polygon
       style="fill:#000000;stroke:#000000"
       id="polygon837"
       points="199.8,-510.35 202.5,-504.35 205.2,-510.35 202.5,-507.35 202.5,-510.35 202.5,-507.35 " />
    <text
       style="font-size:14px;font-family:'Ubuntu Condensed';text-anchor:middle;fill:#8b2500"
       id="text839"
       font-size="14.00"
       y="-528.84003"
       x="176.5">propose</text>
  </g>
  <g
     class="node"
     id="node3"
     transform="translate(8.5,621.49996)">
    <title
       id="title842">Construction</title>
    <polygon
       style="fill:none;stroke:#000000"
       id="polygon844"
       points="149,-288 149,-216 256,-216 256,-288 " />
    <text
       style="font-size:16px;font-family:'Cabin Sketch';text-anchor:middle"
       id="text846"
       font-size="16.00"
       y="-248.2"
       x="202.5">Construction</text>
  </g>
  <g
     class="edge"
     id="edge2"
     transform="translate(8.5,621.49996)">
    <title
       id="title849">Elaboration:c-&gt;Construction:c</title>
    <path
       style="fill:none;stroke:#000000"
       inkscape:connector-curvature="0"
       id="path851"
       d="m 153.97,-468 c -13.34,0 -24.22,0 -24.22,0 0,0 0,198 0,198 0,0 13.11,0 13.11,0" />
    <polygon
       style="fill:#000000;stroke:#000000"
       id="polygon853"
       points="142.86,-267.3 148.86,-270 142.86,-272.7 145.86,-270 142.86,-270 145.86,-270 " />
    <text
       style="font-size:14px;font-family:'Ubuntu Condensed';text-anchor:middle;fill:#27408b"
       id="text855"
       font-size="14.00"
       y="-378.35999"
       x="103.75">promise</text>
  </g>
  <g
     class="node"
     id="node6"
     transform="translate(8.5,621.49996)">
    <title
       id="title858">Discussion</title>
    <polygon
       style="fill:none;stroke:#000000"
       id="polygon860"
       points="156.5,-396 156.5,-324 248.5,-324 248.5,-396 " />
    <text
       style="font-size:16px;font-family:'Cabin Sketch';text-anchor:middle"
       id="text862"
       font-size="16.00"
       y="-356.20001"
       x="202.5">Discussion</text>
  </g>
  <g
     class="edge"
     id="edge3"
     transform="translate(8.5,621.49996)">
    <title
       id="title865">Elaboration:c-&gt;Discussion:c</title>
    <path
       style="fill:none;stroke:#000000"
       inkscape:connector-curvature="0"
       id="path867"
       d="m 187.17,-431.74 c 0,0 0,29.39 0,29.39" />
    <polygon
       style="fill:#000000;stroke:#000000"
       id="polygon869"
       points="184.47,-402.35 187.17,-396.35 189.87,-402.35 187.17,-399.35 187.17,-402.35 187.17,-399.35 " />
    <text
       style="font-size:14px;font-family:'Ubuntu Condensed';text-anchor:middle;fill:#27408b"
       id="text871"
       font-size="14.00"
       y="-420.84"
       x="161.67">suggest</text>
  </g>
  <g
     class="node"
     id="node8"
     transform="translate(8.5,621.49996)">
    <title
       id="title874">Withdrawn</title>
    <polygon
       style="fill:none;stroke:#000000"
       id="polygon876"
       points="510,-288 510,-216 603,-216 603,-288 " />
    <text
       style="font-size:16px;font-family:'Cabin Sketch';text-anchor:middle"
       id="text878"
       font-size="16.00"
       y="-248.2"
       x="556.5">Withdrawn</text>
  </g>
  <g
     class="edge"
     id="edge4"
     transform="translate(8.5,621.49996)">
    <title
       id="title881">Elaboration:c-&gt;Withdrawn:c</title>
    <path
       style="fill:none;stroke:#000000"
       inkscape:connector-curvature="0"
       id="path883"
       d="m 251.26,-480 c 102.95,0 333.14,0 333.14,0 0,0 0,185.87 0,185.87" />
    <polygon
       style="fill:#000000;stroke:#000000"
       id="polygon885"
       points="581.7,-294.13 584.4,-288.13 587.1,-294.13 584.4,-291.13 584.4,-294.13 584.4,-291.13 " />
    <text
       style="font-size:14px;font-family:'Ubuntu Condensed';text-anchor:middle;fill:#27408b"
       id="text887"
       font-size="14.00"
       y="-483.79999"
       x="487.76001">decline</text>
  </g>
  <g
     class="edge"
     id="edge5"
     transform="translate(8.5,621.49996)">
    <title
       id="title890">Elaboration:c-&gt;Withdrawn:c</title>
    <path
       style="fill:none;stroke:#000000"
       inkscape:connector-curvature="0"
       id="path892"
       d="m 251.12,-456 c 99,0 314.68,0 314.68,0 0,0 0,162 0,162" />
    <polygon
       style="fill:#000000;stroke:#000000"
       id="polygon894"
       points="563.1,-294 565.8,-288 568.5,-294 565.8,-291 565.8,-294 565.8,-291 " />
    <text
       style="font-size:14px;font-family:'Ubuntu Condensed';text-anchor:middle;fill:#8b2500"
       id="text896"
       font-size="14.00"
       y="-459.79999"
       x="460.95999">abandon</text>
  </g>
  <g
     class="node"
     id="node4"
     transform="translate(8.5,621.49996)">
    <title
       id="title899">Transition</title>
    <polygon
       style="fill:none;stroke:#000000"
       id="polygon901"
       points="18,-180 18,-108 105,-108 105,-180 " />
    <text
       style="font-size:16px;font-family:'Cabin Sketch';text-anchor:middle"
       id="text903"
       font-size="16.00"
       y="-140.2"
       x="61.5">Transition</text>
  </g>
  <path
     d="m 157.49,369.49996 c -44.98,0 -101.99,0 -101.99,0 0,0 0,65.74 0,65.74"
     id="path908"
     inkscape:connector-curvature="0"
     style="fill:none;stroke:#000000" />
  <polygon
     points="49.7,-186.26 47,-183.26 47,-186.26 47,-183.26 44.3,-186.26 47,-180.26 "
     id="polygon910"
     style="fill:#000000;stroke:#000000"
     transform="translate(8.5,621.49996)" />
  <text
     x="82.119995"
     y="365.69998"
     font-size="14.00"
     id="text912"
     style="font-size:14px;font-family:'Ubuntu Condensed';text-anchor:middle;fill:#27408b">deliver</text>
  <g
     class="node"
     id="node7"
     transform="translate(8.5,621.49996)">
    <title
       id="title915">Defaulted</title>
    <polygon
       style="fill:none;stroke:#000000"
       id="polygon917"
       points="301.5,-180 301.5,-108 387.5,-108 387.5,-180 " />
    <text
       style="font-size:16px;font-family:'Cabin Sketch';text-anchor:middle"
       id="text919"
       font-size="16.00"
       y="-140.2"
       x="344.5">Defaulted</text>
  </g>
  <g
     class="edge"
     id="edge8"
     transform="translate(8.5,621.49996)">
    <title
       id="title922">Construction:c-&gt;Defaulted:c</title>
    <path
       style="fill:none;stroke:#000000"
       inkscape:connector-curvature="0"
       id="path924"
       d="m 256.18,-240 c 40.22,0 88.32,0 88.32,0 0,0 0,53.98 0,53.98" />
    <polygon
       style="fill:#000000;stroke:#000000"
       id="polygon926"
       points="341.8,-186.02 344.5,-180.02 347.2,-186.02 344.5,-183.02 344.5,-186.02 344.5,-183.02 " />
    <text
       style="font-size:14px;font-family:'Ubuntu Condensed';text-anchor:middle;fill:#27408b"
       id="text928"
       font-size="14.00"
       y="-243.8"
       x="301.32999">disavow</text>
  </g>
  <g
     class="node"
     id="node9"
     transform="translate(8.5,621.49996)">
    <title
       id="title931">Cancelled</title>
    <polygon
       style="fill:none;stroke:#000000"
       id="polygon933"
       points="464.5,-72 464.5,0 548.5,0 548.5,-72 " />
    <text
       style="font-size:16px;font-family:'Cabin Sketch';text-anchor:middle"
       id="text935"
       font-size="16.00"
       y="-32.200001"
       x="506.5">Cancelled</text>
  </g>
  <g
     class="edge"
     id="edge6"
     transform="translate(8.5,621.49996)">
    <title
       id="title938">Construction:c-&gt;Cancelled:c</title>
    <path
       style="fill:none;stroke:#000000"
       inkscape:connector-curvature="0"
       id="path940"
       d="m 256.12,-264 c 84.39,0 238.71,0 238.71,0 0,0 0,185.87 0,185.87" />
    <polygon
       style="fill:#000000;stroke:#000000"
       id="polygon942"
       points="492.13,-78.13 494.83,-72.13 497.53,-78.13 494.83,-75.13 494.83,-78.13 494.83,-75.13 " />
    <text
       style="font-size:14px;font-family:'Ubuntu Condensed';text-anchor:middle;fill:#8b2500"
       id="text944"
       font-size="14.00"
       y="-267.79999"
       x="439.91">abandon</text>
  </g>
  <path
     d="m 84.5,441.40996 c 0,-25.04 0,-53.91 0,-53.91 0,0 66.85,0 66.85,0"
     id="path949"
     inkscape:connector-curvature="0"
     style="fill:none;stroke:#000000" />
  <polygon
     points="142.85,-236.7 145.85,-234 142.85,-234 145.85,-234 142.85,-231.3 148.85,-234 "
     id="polygon951"
     style="fill:#000000;stroke:#000000"
     transform="translate(8.5,621.49996)" />
  <text
     x="116.97"
     y="406.19998"
     font-size="14.00"
     id="text953"
     style="font-size:14px;font-family:'Ubuntu Condensed';text-anchor:middle;fill:#8b2500">condemn</text>
  <g
     class="node"
     id="node5"
     transform="translate(8.5,621.49996)">
    <title
       id="title956">Completion</title>
    <polygon
       style="fill:none;stroke:#000000"
       id="polygon958"
       points="12.5,-72 12.5,0 110.5,0 110.5,-72 " />
    <text
       style="font-size:16px;font-family:'Cabin Sketch';text-anchor:middle"
       id="text960"
       font-size="16.00"
       y="-32.200001"
       x="61.5">Completion</text>
  </g>
  <path
     d="m 55.5,513.75996 c 0,0 0,29.39 0,29.39"
     id="path965"
     inkscape:connector-curvature="0"
     style="fill:none;stroke:#000000" />
  <polygon
     points="44.3,-78.35 47,-72.35 49.7,-78.35 47,-75.35 47,-78.35 47,-75.35 "
     id="polygon967"
     style="fill:#000000;stroke:#000000"
     transform="translate(8.5,621.49996)" />
  <text
     x="32"
     y="527.66003"
     font-size="14.00"
     id="text969"
     style="font-size:14px;font-family:'Ubuntu Condensed';text-anchor:middle;fill:#8b2500">declare</text>
  <g
     class="edge"
     id="edge9"
     transform="translate(8.5,621.49996)">
    <title
       id="title972">Transition:c-&gt;Cancelled:c</title>
    <path
       style="fill:none;stroke:#000000"
       inkscape:connector-curvature="0"
       id="path974"
       d="m 76,-107.98 c 0,9.9 0,17.98 0,17.98 0,0 403.67,0 403.67,0 0,0 0,11.98 0,11.98" />
    <polygon
       style="fill:#000000;stroke:#000000"
       id="polygon976"
       points="476.97,-78.02 479.67,-72.02 482.37,-78.02 479.67,-75.02 479.67,-78.02 479.67,-75.02 " />
    <text
       style="font-size:14px;font-family:'Ubuntu Condensed';text-anchor:middle;fill:#8b2500"
       id="text978"
       font-size="14.00"
       y="-93.800003"
       x="246.33">abandon</text>
  </g>
  <g
     class="edge"
     id="edge14"
     transform="translate(8.5,621.49996)">
    <title
       id="title981">Discussion:c-&gt;Elaboration:c</title>
    <path
       style="fill:none;stroke:#000000"
       inkscape:connector-curvature="0"
       id="path983"
       d="m 217.83,-396.26 c 0,0 0,-29.39 0,-29.39" />
    <polygon
       style="fill:#000000;stroke:#000000"
       id="polygon985"
       points="220.53,-425.65 217.83,-431.65 215.13,-425.65 217.83,-428.65 217.83,-425.65 217.83,-428.65 " />
    <text
       style="font-size:14px;font-family:'Ubuntu Condensed';text-anchor:middle;fill:#8b2500"
       id="text987"
       font-size="14.00"
       y="-414.76001"
       x="242.33">counter</text>
  </g>
  <g
     class="edge"
     id="edge12"
     transform="translate(8.5,621.49996)">
    <title
       id="title990">Discussion:c-&gt;Construction:c</title>
    <path
       style="fill:none;stroke:#000000"
       inkscape:connector-curvature="0"
       id="path992"
       d="m 187.17,-323.74 c 0,0 0,29.39 0,29.39" />
    <polygon
       style="fill:#000000;stroke:#000000"
       id="polygon994"
       points="184.47,-294.35 187.17,-288.35 189.87,-294.35 187.17,-291.35 187.17,-294.35 187.17,-291.35 " />
    <text
       style="font-size:14px;font-family:'Ubuntu Condensed';text-anchor:middle;fill:#27408b"
       id="text996"
       font-size="14.00"
       y="-312.84"
       x="161.17">promise</text>
  </g>
  <path
     d="m 226.33,297.75996 c 0,0 0,29.39 0,29.39"
     id="path1001"
     inkscape:connector-curvature="0"
     style="fill:none;stroke:#000000" />
  <polygon
     points="220.53,-294.35 217.83,-291.35 217.83,-294.35 217.83,-291.35 215.13,-294.35 217.83,-288.35 "
     id="polygon1003"
     style="fill:#000000;stroke:#000000"
     transform="translate(8.5,621.49996)" />
  <text
     x="252.83"
     y="310.15997"
     font-size="14.00"
     id="text1005"
     style="font-size:14px;font-family:'Ubuntu Condensed';text-anchor:middle;fill:#8b2500">confirm</text>
  <g
     class="edge"
     id="edge15"
     transform="translate(8.5,621.49996)">
    <title
       id="title1008">Discussion:c-&gt;Withdrawn:c</title>
    <path
       style="fill:none;stroke:#000000"
       inkscape:connector-curvature="0"
       id="path1010"
       d="m 248.63,-372 c 93.93,0 298.57,0 298.57,0 0,0 0,78 0,78" />
    <polygon
       style="fill:#000000;stroke:#000000"
       id="polygon1012"
       points="544.5,-294 547.2,-288 549.9,-294 547.2,-291 547.2,-294 547.2,-291 " />
    <text
       style="font-size:14px;font-family:'Ubuntu Condensed';text-anchor:middle;fill:#8b2500"
       id="text1014"
       font-size="14.00"
       y="-375.79999"
       x="408.41">abandon</text>
  </g>
  <g
     class="edge"
     id="edge16"
     transform="translate(8.5,621.49996)">
    <title
       id="title1017">Discussion:c-&gt;Withdrawn:c</title>
    <path
       style="fill:none;stroke:#000000"
       inkscape:connector-curvature="0"
       id="path1019"
       d="m 248.53,-348 c 89.89,0 280.07,0 280.07,0 0,0 0,53.98 0,53.98" />
    <polygon
       style="fill:#000000;stroke:#000000"
       id="polygon1021"
       points="525.9,-294.02 528.6,-288.02 531.3,-294.02 528.6,-291.02 528.6,-294.02 528.6,-291.02 " />
    <text
       style="font-size:14px;font-family:'Ubuntu Condensed';text-anchor:middle;fill:#27408b"
       id="text1023"
       font-size="14.00"
       y="-351.79999"
       x="392.56">decline</text>
  </g>
</svg>
