<?xml version="1.0" encoding="UTF-8" standalone="no"?>
<svg
   xmlns:dc="http://purl.org/dc/elements/1.1/"
   xmlns:cc="http://creativecommons.org/ns#"
   xmlns:rdf="http://www.w3.org/1999/02/22-rdf-syntax-ns#"
   xmlns:svg="http://www.w3.org/2000/svg"
   xmlns="http://www.w3.org/2000/svg"
   version="1.1"
   id="svg2"
   viewBox="0 0 320 320"
   height="320"
   width="320">
  <defs
     id="defs4" />
  <metadata
     id="metadata7">
    <rdf:RDF>
      <cc:Work
         rdf:about="">
        <dc:format>image/svg+xml</dc:format>
        <dc:type
           rdf:resource="http://purl.org/dc/dcmitype/StillImage" />
        <dc:title></dc:title>
      </cc:Work>
    </rdf:RDF>
  </metadata>
  <g
     transform="translate(0,-732.3622)"
     id="layer1">
    <path
       id="path4207"
       d="m 0,732.3622 0,320 320,0 0,-320 -320,0 z"
       clip-path="none"
       style="fill:#f7faec" />
    <path
       id="path4214"
       d="m 20.45899,732.36202 c -0.0899,0.0552 -0.13524,0.0771 -0.22852,0.13477 -1.94453,1.2017 -7.17375,3.40573 -11.61914,4.89843 C 4.33886,738.82981 1.9329,739.52687 0,739.3503 l 0,2.30664 c 3.24989,0.20913 7.13504,-0.79771 12.80274,-3.14062 6.40097,-2.64605 10.27266,-4.69273 11.64844,-6.1543 l -3.99219,0 z m 39.82226,0 c 1.99623,3.99398 6.28454,7.65904 11.63282,9.57031 7.67411,2.7424 8.49673,0.27291 0.87304,-2.62109 -4.7288,-1.79494 -9.03833,-4.77266 -10.3125,-6.94922 l -2.19336,0 z m 64.55469,0 c -0.45832,0.23127 -0.80664,1.26425 -0.80664,2.49805 0,1.4023 -0.73197,3.9898 -1.62695,5.75 l -1.62696,3.20117 2.62696,-2.42383 c 1.82367,-1.6828 2.62695,-3.4415 2.62695,-5.75 0,-1.65829 -0.37067,-3.03117 -0.84961,-3.27539 l -0.34375,0 z m 135.15625,0 c -0.70742,0.50525 -0.80281,0.93031 -0.25391,1.26953 0.47123,0.2912 4.21755,-0.14635 8.32422,-0.97265 0.50023,-0.10064 1.05279,-0.19945 1.64063,-0.29688 l -9.71094,0 z m 36.88281,0 c 1.54463,0.53491 3.30929,1.24253 5.6543,2.22656 4.95,2.0772 10.53837,4.59556 12.41797,5.59766 1.61706,0.86211 3.23633,1.35382 5.05273,1.4707 l 0,-2.30664 c -1.99005,-0.18179 -3.47795,-1.28963 -5.9707,-3.49414 -0.81187,-0.71805 -3.58644,-2.04238 -7.16602,-3.49414 l -9.98828,0 z m -49.16601,3.46875 c -0.44465,-0.0528 -1.91527,1.2565 -4.60547,3.90625 l -4.92383,4.85156 -0.32617,13.27149 c -0.32183,13.1467 -0.35326,13.30843 -3.42774,17.11133 -1.70709,2.1115 -4.31831,4.27188 -5.80273,4.80078 -4.22442,1.5051 -5.9707,-0.2744 -6.92383,-7.0586 -1.23534,-8.793 -1.62688,-10.40234 -2.5293,-10.40234 -1.43496,0 -2.9998,4.63629 -3.72265,11.02539 -0.91785,8.1128 -2.76231,10.06108 -14.07617,14.85938 -5.03726,2.1364 -12.06937,5.9614 -15.62696,8.5 -7.29815,5.2079 -10.67748,5.74171 -17.21484,2.72461 -6.26335,-2.8908 -8.48994,-5.97933 -9.53906,-13.23633 -0.50674,-3.5052 -0.93031,-6.73674 -0.94141,-7.18164 -0.0111,-0.445 -0.50604,-0.50873 -1.10156,-0.14063 -1.78989,1.1062 -4.81299,9.13421 -4.25,11.28711 0.59343,2.2693 10.03058,9.21541 16.52344,12.16211 6.28355,2.8517 8.37468,2.51978 17.96093,-2.85742 11.19734,-6.2808 11.05984,-6.23015 19.84766,-7.27735 4.125,-0.4916 9.33446,-1.15315 11.57617,-1.46875 3.41737,-0.4811 4.87135,-0.0688 9,2.55079 5.01877,3.1843 15.88227,7.05273 19.80664,7.05273 2.67661,0 6.61719,-2.64491 6.61719,-4.44141 0,-1.0175 -1.47755,-1.21046 -6.31445,-0.82226 -4.78983,0.3845 -7.1432,0.0875 -9.75,-1.23438 -7.75264,-3.9315 -8.64498,-6.50165 -3.84571,-11.06445 4.72557,-4.4928 5.83875,-7.49184 6.92969,-18.65234 1.21215,-12.4004 2.63042,-19.047 5.11719,-23.9961 1.40795,-2.80205 1.98762,-4.2167 1.54297,-4.26953 z m -46.00781,0.58008 c -0.51259,-0.0467 -1.82328,0.52158 -5.16993,2.00195 -3.96129,1.7523 -5.12991,1.90012 -7.02343,0.88672 -1.94661,-1.0418 -3.18033,-0.78094 -8.625,1.81836 -3.93621,1.8792 -8.80143,3.28019 -12.78907,3.68359 -7.81514,0.7906 -11.529,2.583 -14.10547,6.8086 -2.37861,3.901 -2.48746,8.19122 -0.33984,13.32812 0.89037,2.1296 2.01445,4.913 2.49805,6.1836 0.4836,1.2706 1.32983,2.0319 1.88086,1.6914 1.58238,-0.978 1.17776,-4.23609 -1.07422,-8.65039 -1.7758,-3.4808 -1.90248,-4.49047 -0.8711,-6.98047 2.10095,-5.0721 6.09053,-7.54543 13.43555,-8.33203 10.38906,-1.1126 32.51172,-9.1106 32.51172,-11.7539 0,-0.40695 -0.0206,-0.65752 -0.32812,-0.68555 z m -159.31446,3.04297 c -0.83429,-0.0159 -1.61731,-0.004 -2.32617,0.0371 l -5.46875,0.32031 -3.34375,8 c -4.8673,11.6474 -5.4341,12.07851 -16.87695,12.88281 C 9.10159,761.06454 3.90547,761.842 2.82422,762.42061 1.9168,762.90625 0.9141,764.15999 0,765.74482 l 0,15.17579 c 2.36973,2.13904 6.37105,4.44108 12.77539,7.54296 6.01932,2.9155 10.72861,5.86599 11.41602,7.15039 0.64354,1.2025 2.10764,6.00819 3.25391,10.67969 2.0676,8.4262 2.13097,8.52936 8.02929,13.00586 8.1358,6.1746 14.95587,13.07182 22.01172,22.26172 3.27267,4.2625 6.30815,7.75 6.74609,7.75 1.66037,0 0.66399,-2.03158 -3.16796,-6.45898 -2.18017,-2.519 -5.93301,-7.62591 -8.3418,-11.34961 -3.10225,-4.7955 -6.463,-8.314 -11.51953,-12.0625 l -7.13867,-5.29102 -3.11328,-10.16992 c -1.88754,-6.165 -4.07713,-11.19183 -5.5625,-12.76953 -1.34749,-1.4312 -6.3668,-4.27712 -11.1543,-6.32422 -4.7875,-2.0471 -9.49258,-4.63957 -10.45508,-5.75977 -2.25667,-2.6263 -2.31215,-9.53712 -0.0957,-11.98633 2.34811,-2.5946 11.03385,-2.44833 17.40625,0.29297 4.34872,1.8708 5.05812,2.6096 6.00195,6.25 0.58869,2.2707 1.38387,5.25391 1.76562,6.62891 1.52069,5.4772 14.67827,7.99985 22.15626,4.24805 5.77624,-2.8981 9.57994,-12.00879 7.39257,-17.70899 -0.86887,-2.2642 -6.80498,-5.08576 -13.68554,-6.50586 -7.36602,-1.5202 -8.56865,-3.53868 -6.80274,-11.42968 1.66457,-7.438 4.12803,-8.4677 14.65821,-6.125 7.58379,1.6873 10.27955,1.56827 6.78906,-0.29883 -2.79953,-1.49748 -11.1385,-2.92607 -16.97852,-3.03711 z m 177.18555,1.10351 c -0.0806,10e-5 -0.15683,0.0338 -0.22656,0.10352 -0.23165,0.2316 -0.10788,3.86426 0.27343,8.07227 0.75351,8.3152 2.68469,9.97958 3.2168,2.77148 0.25797,-3.49453 -2.05435,-10.94864 -3.26367,-10.94727 z m -201.66992,1.09571 c -0.74898,-0.005 -1.57119,0.0737 -2.45899,0.24023 -2.51035,0.4709 -3.83177,1.38582 -4.48633,3.10742 -1.43479,3.7738 -1.10277,7.10611 0.82227,8.25391 4.02871,2.4021 11.25,-2.14333 11.25,-7.08203 0,-2.89161 -1.88138,-4.49624 -5.12695,-4.51953 z m 238.85547,0.97851 c -0.24588,-0.0978 -0.97758,0.50496 -2.17188,1.62696 -2.67557,2.5135 -5.55664,7.93272 -5.55664,10.45312 0,3.1587 1.62571,1.48708 4.78516,-4.91992 2.41118,-4.88963 3.35315,-6.99718 2.94336,-7.16016 z m -160.28321,18.60547 -5.22265,2.16992 c -2.87245,1.1938 -5.22266,2.56051 -5.22266,3.03711 0,2.026 4.85444,0.62818 7.53516,-2.16992 l 2.91015,-3.03711 z m 12.7461,0.58203 c -0.47862,-0.11658 0.69373,0.79841 2.90625,2.2461 2.52859,1.6546 4.87709,3.73665 5.21875,4.62695 0.65442,1.7054 3.68359,2.27721 3.68359,0.69531 0,-0.5078 1.07187,-2.1953 2.38086,-3.75 l 2.37891,-2.82617 -7.12891,0 c -3.92149,-4e-4 -8.03086,-0.39495 -9.13086,-0.87695 -0.1375,-0.0602 -0.24022,-0.0986 -0.30859,-0.11524 z m 63.91211,1.49219 c -2.80256,0 -6.10352,4.67017 -6.10352,8.63477 0,3.9791 1.72082,4.38743 4.70117,1.11523 4.68402,-5.1426 5.34624,-9.75 1.40235,-9.75 z m -134.17188,1 c 6.35598,0 9.23992,1.25552 12.16602,5.29492 3.72435,5.1413 3.68277,7.87014 -0.17383,11.11524 -5.39847,4.5425 -13.26357,2.60833 -16.41797,-4.03907 -2.99243,-6.3061 -0.82287,-12.37109 4.42578,-12.37109 z m 252.22461,0 c -1.27186,0 -3.32487,3.75542 -5.16602,9.44922 -0.70228,2.1718 -2.56155,6.12807 -4.13281,8.79297 -1.57126,2.6649 -2.85742,5.05193 -2.85742,5.30273 0,3.6829 11.91362,-15.23576 12.71875,-20.19726 0.34155,-2.1047 0.13245,-3.34766 -0.5625,-3.34766 z m -9.75977,1.3418 c -1.07947,0.0266 -2.73373,0.37764 -4.97265,1.13867 -4.38958,1.4921 -6.19423,2.80826 -8.84571,6.44726 -3.01319,4.1354 -8.57812,14.21597 -8.57812,15.53907 0,0.2932 0.63082,0.5332 1.40234,0.5332 1.26753,0 6.48992,-7.01535 9.49219,-12.75195 0.64803,-1.2383 3.32778,-3.34058 5.95508,-4.67188 6.85105,-3.47175 8.7853,-6.31421 5.54687,-6.23437 z M 320,765.74484 c -1.605,2.78289 -2.93074,6.61116 -2.94922,9.27539 -0.0147,2.14562 0.79476,3.95565 2.94922,5.9004 l 0,-15.17579 z m -197.45898,7.56055 c -0.99878,0.0342 -1.40352,0.50682 -2.0918,1.44727 -1.67567,2.2897 -1.87394,11.38309 -0.36719,16.80859 1.5545,5.5975 3.06838,4.6336 2.35547,-1.5 -0.51643,-4.4432 -0.27745,-5.6726 1.5625,-8 3.57633,-4.5238 10.74691,-2.88584 14.39453,3.28906 2.34811,3.9751 2.11099,4.82908 -2.52539,9.10938 -3.81289,3.52 -4.03325,3.9865 -2.63476,5.5957 0.83923,0.9656 1.82607,3.01253 2.1914,4.54883 0.36706,1.5436 1.65597,3.19305 2.88282,3.68555 2.4954,1.0019 8.56226,0.28241 10.48242,-1.24219 1.70513,-1.3538 -0.15668,-3.5839 -4.51172,-5.4043 -3.79734,-1.5873 -4.06033,-3.31729 -1.10938,-7.30859 1.57507,-2.1305 1.99499,-3.77149 1.5879,-6.20899 -1.43634,-8.6005 -3.28577,-10.12447 -16.5586,-13.63867 -3.06661,-0.81195 -4.65942,-1.21584 -5.6582,-1.18164 z m -25.83203,8.49024 c -0.34956,0.0163 -1.08711,0.48921 -2.17969,1.51562 -1.375,1.2917 -2.5,2.71973 -2.5,3.17383 0,1.4254 1.11125,0.90817 3.05664,-1.42383 1.71228,-2.0525 2.20564,-3.29276 1.62305,-3.26562 z m -9.06055,18.57226 c -0.38508,-0.10848 -0.61914,0.40414 -0.61914,1.50195 0,0.8579 0.45665,1.27714 1.01562,0.93164 0.55897,-0.3454 0.75785,-1.04659 0.44141,-1.55859 -0.32146,-0.52012 -0.60684,-0.80991 -0.83789,-0.875 z m 163.42578,1.61328 -5.02148,5.02149 c -4.39996,4.4 -5.02344,5.53196 -5.02344,9.13086 0,3.169 0.70936,4.91577 3.10352,7.64257 2.66065,3.0303 3.72504,3.53516 7.45898,3.53516 5.52698,0 19.68781,-2.01717 20.7168,-2.95117 1.14164,-1.0362 -7.42686,-11.16643 -9.16211,-10.83203 -0.8105,0.1561 -1.8343,1.63195 -2.27539,3.28125 -1.5083,5.64 -7.32041,7.27348 -12.20703,3.42968 -5.65985,-4.452 -2.19683,-12.7672 4.84179,-11.625 4.2999,0.6978 4.41326,-0.077 0.54688,-3.78125 l -2.97852,-2.85156 z m 17.95508,1.33008 c -0.55,0 -1,0.47619 -1,1.05859 0,0.5825 0.45,0.78131 1,0.44141 0.55,-0.3399 1,-0.81609 1,-1.05859 0,-0.2426 -0.45,-0.44141 -1,-0.44141 z m -62.23242,7.28125 c -6.29116,0.19983 -9.40556,4.97429 -10.38672,15.53125 -0.63304,6.8112 -0.58579,7.00754 2.11523,8.77734 1.75996,1.1532 5.70943,2.05814 10.88282,2.49414 9.96433,0.8397 28.306,7.28077 32.68945,11.48047 3.94145,3.7761 6.33863,10.369 5.64648,15.5293 -0.72604,5.4131 1.28221,12.79044 6.72071,24.68164 5.22302,11.42 10.58216,29.68222 9.84375,33.54492 -0.59637,3.1197 -5.54607,7.67969 -8.33594,7.67969 -1.04679,0 -6.75032,-2.10067 -12.67383,-4.66797 -12.53489,-5.4326 -17.67373,-9.9413 -21.29883,-18.6875 -1.28683,-3.1047 -2.7055,-5.64453 -3.15429,-5.64453 -1.36131,0 -0.88157,2.12381 2.47265,10.94531 3.1316,8.236 3.35976,8.53218 9.21094,11.95508 3.3,1.9304 10.275,4.76066 15.5,6.28906 13.98279,4.0904 18.21376,2.95013 22.21094,-5.98437 3.46129,-7.7367 1.31018,-16.93358 -7.53321,-32.20508 -7.49072,-12.9356 -8.85593,-16.63789 -9.71093,-26.33789 -0.59486,-6.7485 -1.49539,-10.2941 -3.8125,-15 -3.57303,-7.2566 -5.97701,-8.92082 -16.21485,-11.22852 -7.92654,-1.7867 -12.93945,-3.88908 -12.93945,-5.42578 0,-0.5172 0.73398,-2.47867 1.63086,-4.35937 1.20693,-2.531 1.44425,-4.66177 0.91406,-8.19727 -0.95222,-6.3498 -4.60966,-10.03751 -10.88476,-10.97851 -1.03147,-0.15468 -1.99384,-0.21996 -2.89258,-0.19141 z m -117.51172,1.73828 c -0.2277,0.0244 -0.2177,0.57656 0.11719,1.73047 0.27933,0.9625 1.00154,3.6625 1.60547,6 0.60394,2.3375 1.53174,4.25 2.06054,4.25 1.59228,0 1.08779,-3.83186 -1.05859,-8.03906 -1.30364,-2.55538 -2.34511,-3.98212 -2.72461,-3.94141 z m 120.625,4.27539 c 2.3752,-0.0431 4.69298,0.76987 5.86523,2.37305 2.65974,3.6374 0.73055,12.33203 -2.73632,12.33203 -0.46573,0 -1.44526,0.16158 -2.17774,0.35938 -7.36561,1.98869 -12.17338,-8.58556 -6.08203,-13.37696 1.4017,-1.10259 3.28348,-1.65398 5.13086,-1.6875 z m 82.92969,4.98242 c -1.14747,-0.0172 -2.25364,0.21523 -3.81055,0.6211 -2.475,0.6451 -5.71875,2.05652 -7.20898,3.13672 -1.49023,1.0803 -3.45357,1.96484 -4.36329,1.96484 -1.4099,0 -1.54553,0.7011 -0.91796,4.75 0.6614,4.2672 0.7527,11.90261 0.19726,16.44141 -0.11385,0.9303 0.21463,1.8303 0.73047,2 1.04667,0.3444 5.36758,-14.16097 5.48633,-18.41797 0.10377,-3.7198 3.70733,-5.87778 9.89844,-5.92578 6.31159,-0.0489 8.34418,0.58493 15.30859,4.76953 5.90109,3.5456 7.76571,3.97845 10.63281,2.46875 0.38069,-0.20046 0.79957,-0.39612 1.20703,-0.59375 l 0,-3.35157 c -0.84461,0.1524 -1.49485,0.13722 -1.89843,-0.0703 -0.8642,-0.4444 -3.29108,-1.11834 -5.39258,-1.49804 -2.1014,-0.3796 -7.27641,-2.07438 -11.5,-3.76758 -4.42811,-1.77525 -6.4567,-2.49875 -8.36914,-2.52735 z m -180.04883,2.63282 c -2.99845,-0.13929 -10.32784,3.41022 -11.72852,6.02734 -1.21006,2.261 -1.01232,2.8384 2.66602,7.8125 2.88413,3.9001 6.57697,4.326 8.67187,1 2.13076,-3.383 3.05804,-13.14912 1.38086,-14.54102 -0.22163,-0.18393 -0.56188,-0.27893 -0.99023,-0.29882 z m -95.95508,0.14648 c -3.37198,0.0521 -7.38274,1.14093 -11.82226,3.26563 -2.0488,0.98053 -3.75252,1.5908 -5.01368,1.81835 l 0,3.35157 c 4.91598,-2.38442 11.52617,-4.49219 14.31446,-4.49219 6.18486,0 14.8113,8.2668 20.60937,19.75 2.0315,4.0234 4.10547,5.59723 4.10547,3.11523 0,-1.4701 -11.77403,-21.2465 -14.19922,-23.84961 -1.88834,-2.02689 -4.62216,-3.01108 -7.99414,-2.95898 z m 138.56641,2.94922 c -5.15924,-0.007 -6.92173,1.7649 -4.78711,4.8125 1.90652,2.7219 3.18722,2.74411 5.99804,0.10352 2.08503,-1.9588 2.38699,-1.98856 5.26172,-0.50196 3.9811,2.0587 7.22255,6.46087 11.10157,15.07617 3.18348,7.0704 6.23642,11.02143 11.35937,14.70313 l 2.80664,2.01758 4.95117,-4.17383 c 3.20324,-2.7011 5.56332,-3.97774 6.69141,-3.61914 2.00977,0.639 7.24414,5.28303 7.24414,6.42773 0,0.424 0.91763,1.75529 2.03906,2.95899 2.27012,2.4367 3.96597,2.84045 3.95117,0.93945 -0.0104,-1.3411 -6.37548,-9.73871 -8.31835,-10.97461 -1.73759,-1.1052 -7.84508,-0.93183 -13.54883,0.38477 -6.46754,1.4929 -7.12328,0.94847 -12.80274,-10.64063 -6.77231,-13.8192 -11.38439,-17.49967 -21.94726,-17.51367 z m -63.90821,8.38476 c -2.49456,-0.101 -6.53906,0.68033 -6.03125,1.50196 0.22907,0.3701 2.28934,0.49554 4.57813,0.27734 2.64797,-0.2526 3.81367,-0.74501 3.20508,-1.35351 -0.26118,-0.2612 -0.92044,-0.39212 -1.75196,-0.42579 z m 0.5918,5.97266 c -1.39048,-0.16048 -2.76589,0.69359 -6.27539,3.36524 -2.90493,2.2114 -6.29375,4.54334 -7.53125,5.18164 -3.28837,1.6962 -2.8058,2.76153 2.5,5.52343 5.38551,2.8034 5.36342,2.79789 6.83398,1.80079 1.67119,-1.13311 8.41602,-11.54539 8.41602,-12.99219 0,-0.7066 -1.11118,-1.79166 -2.46875,-2.41016 -0.5467,-0.2491 -1.01111,-0.41525 -1.47461,-0.46875 z m 65.01367,0.63672 c -0.51101,0 -1.45682,2.5875 -2.10156,5.75 -1.3911,6.8235 -3.71787,10.94755 -7.93359,14.06445 -1.70041,1.2571 -2.82563,2.71458 -2.50196,3.23828 1.36109,2.2023 9.84603,-5.32333 12.10938,-10.74023 1.53815,-3.6814 1.8379,-12.3125 0.42773,-12.3125 z m -54.66406,1.31445 c -0.0299,-0.006 -0.0538,-9e-4 -0.0723,0.0176 -0.80399,0.804 2.55606,10.58007 5.26758,15.32617 1.30652,2.287 3.61777,5.08555 5.13672,6.21875 3.26611,2.4365 3.00379,2.35025 3.70313,1.21875 0.30764,-0.4978 -1.05557,-2.83877 -3.0293,-5.20117 -1.97374,-2.3624 -5.15271,-7.40106 -7.06445,-11.19726 -1.79226,-3.55894 -3.4923,-6.29792 -3.94141,-6.38282 z m -27.50781,15.71485 c -2.31369,-0.0503 -4.88352,0.42828 -6.86914,1.45508 -4.99496,2.58299 -9.1147,10.24364 -7.61328,14.15624 0.87076,2.2692 1.59489,1.2602 2.73437,-3.8125 1.38087,-6.1473 4.21944,-8.82812 9.34961,-8.82812 4.75439,0 7.44434,2.23117 9.96484,8.26367 1.58449,3.7922 3.53516,5.00467 3.53516,2.19727 0,-1.8808 -3.66176,-9.31114 -5.77148,-11.71094 -0.95895,-1.0908 -3.01639,-1.67043 -5.33008,-1.7207 z m 236.72265,1.96679 -1.88476,5.75196 c -2.30206,7.0266 -2.41074,15.53316 -0.31445,24.57226 1.95159,8.415 1.20468,10.14183 -5.19532,12.01953 -4.07947,1.1966 -5.41195,1.18551 -9.72656,-0.0879 -8.13875,-2.4022 -16.31177,-6.9821 -17.85352,-10.0039 -0.77115,-1.5115 -1.72343,-7.13555 -2.11718,-12.49805 -0.39376,-5.3625 -1.06632,-9.75 -1.49414,-9.75 -1.00982,0 -2.38536,19.32317 -1.56055,21.92188 0.34677,1.09259 4.13094,4.43844 8.4082,7.43554 7.94312,5.5659 13.11719,10.74556 13.11719,13.13086 0,1.2475 -0.98263,2.15859 -9.09375,8.42969 -2.80755,2.1706 -3.07789,2.8357 -2.63086,6.5 0.27389,2.245 0.98733,5.31953 1.58594,6.83203 1.48825,3.7604 2.76982,3.4497 4.125,-1 2.28792,-7.5123 4.22483,-10.94182 7.15039,-12.66992 4.24661,-2.5086 7.51899,-1.33976 13.0957,4.68164 2.60228,2.8098 5.0193,4.82055 5.3711,4.46875 0.3518,-0.3518 -0.76573,-3.12822 -2.48243,-6.16992 -1.71658,-3.0417 -3.12109,-6.15854 -3.12109,-6.92774 0,-1.5755 2.97785,-2.59914 7.62695,-2.61914 4.9444,-0.0216 5.91763,-2.05682 3.79883,-7.94922 -1.4574,-4.0528 -1.57002,-5.4537 -0.60742,-7.5664 1.9071,-4.1856 1.41504,-6.10675 -2.81836,-10.99805 -3.6117,-4.173 -4,-5.14896 -4,-10.06836 0,-4.6984 0.41694,-5.88383 3.02344,-8.61133 l 3.02148,-3.16406 -2.71094,-2.83008 -2.71289,-2.83008 z m -36.62109,2.00391 c -0.55,0 -1,0.45 -1,1 0,0.55 0.45,1 1,1 0.55,0 1,-0.45 1,-1 0,-0.55 -0.45,-1 -1,-1 z m -145.83398,3 c -4.77116,0 -7.3749,0.85435 -6.57032,2.15625 0.84531,1.3677 9.67072,0.58055 10.16016,-0.90625 0.28322,-0.8603 -0.8358,-1.25 -3.58984,-1.25 z m 58.7539,3.48047 c -1.31061,-0.1954 -5.21005,7.24145 -4.39844,8.55469 0.83388,1.3493 1.54646,1.21464 3.6504,-0.68946 1.932,-1.7484 2.4939,-6.81686 0.86718,-7.82226 -0.0366,-0.0226 -0.0769,-0.0367 -0.11914,-0.043 z m -95.64844,0.80469 c -1.06703,-0.0831 0.47145,2.14823 3.46094,4.17968 2.05268,1.3948 4.07768,2.53516 4.5,2.53516 1.513,0 0.72688,-1.54391 -1.48242,-2.91211 -1.2375,-0.7664 -3.2625,-2.05137 -4.5,-2.85547 -0.97718,-0.63505 -1.62284,-0.91956 -1.97852,-0.94726 z m -81.79492,9.06054 c -0.38399,-0.0379 -0.4265,1.0358 -0.44531,3.74805 -0.0175,2.5264 -0.89473,7.10112 -1.94922,10.16602 -1.0545,3.065 -1.65319,5.83505 -1.33203,6.15625 0.94455,0.9445 1.11529,0.76741 3.17578,-3.27149 2.81769,-5.5231 3.6342,-13.11343 1.68164,-15.64453 -0.54661,-0.70856 -0.90046,-1.13157 -1.13086,-1.1543 z m 52.78321,2.08008 c -0.22189,0.0114 -0.25977,0.52445 -0.25977,1.46875 0,1.2974 1.74776,5.56472 3.88477,9.48242 4.48408,8.2205 5.47411,13.5607 4.16601,22.4961 -1.14238,7.8034 -3.14868,10.1663 -11.0918,13.0625 -6.61464,2.4118 -9.23839,5.16221 -17.85351,18.72461 -2.85102,4.4883 -6.20315,8.82813 -7.44922,9.64453 -5.29805,3.4715 -13.96332,12.36867 -19.00781,19.51367 C 8.5331,986.2491 5.19425,989.5401 0,990.7878 l 0,3.207 c 3.59065,-0.03 8.47896,1.3292 9.7793,3.0469 1.49956,1.9809 1.62584,7.1523 0.26172,10.7402 -1.48811,3.914 1.36988,4.4955 5,1.0176 2.68794,-2.5752 3.11336,-2.6785 6.00586,-1.4804 1.71187,0.7091 4.20738,2.9018 5.54687,4.873 1.99485,2.9357 2.43555,4.8238 2.43555,10.4356 0,5.0431 0.32987,6.7377 1.25,6.4218 0.79809,-0.274 1.2394,-2.3836 1.2207,-5.834 -0.0262,-4.8407 -0.78226,-6.7309 -7.25,-18.1211 -4.94973,-8.7168 -7.21603,-13.7489 -7.20703,-16 0.007,-1.8061 1.33998,-7.1082 2.96094,-11.7832 3.41917,-9.86115 7.88713,-14.99995 13.04492,-14.99995 5.26093,0 7.8848,-2.73157 13.09375,-13.63867 5.90006,-12.3545 8.51677,-14.71714 18.17383,-16.39844 3.7333,-0.6499 7.41992,-1.81248 8.19141,-2.58398 0.77149,-0.7715 1.67363,-3.53473 2.00586,-6.14063 0.33222,-2.606 1.00809,-7.30641 1.50195,-10.44531 0.52588,-3.3434 0.53101,-6.99305 0.01,-8.81055 -0.93784,-3.2701 -6.71164,-14.08504 -10.6582,-19.96484 -1.20286,-1.79207 -1.79284,-2.60647 -2.07812,-2.5918 z m -15.34961,2.07422 -4.52539,5 c -8.56064,9.4594 -12.28014,19.08766 -9.43165,24.41016 0.6507,1.2159 1.71498,2.03446 2.36524,1.81836 0.65027,-0.2161 3.07086,-3.73075 5.38086,-7.81055 4.22534,-7.4627 6.33886,-14.2911 6.25586,-20.2168 l -0.0449,-3.20117 z m 123.99023,0.60352 c -0.73583,0.0241 -2.79893,0.66988 -6.11328,1.9707 -7.01715,2.754 -9.18174,4.95868 -11.83399,12.05078 -2.79894,7.4843 -5.69349,9.875 -11.95703,9.875 -6.31912,0 -18.48866,-2.20423 -35.46484,-6.42383 -12.89748,-3.2058 -15.90455,-3.6155 -14.22656,-1.9375 0.96843,0.9684 34.21981,10.3495 42.19531,11.9043 3.85,0.7506 8.53767,1.17696 10.41602,0.94726 4.89881,-0.5991 9.81217,-5.74752 11.70703,-12.26562 1.9058,-6.5557 4.32092,-9.35641 11.37695,-13.19531 3.59878,-1.9579 4.84645,-2.95674 3.90039,-2.92578 z m -140.69922,9.31445 c -0.0649,0.0126 -0.13242,0.0395 -0.20117,0.082 -0.55,0.3399 -1,1.26609 -1,2.05859 0,0.7926 0.45,1.44141 1,1.44141 0.55,0 1,-0.92619 1,-2.05859 0,-0.99094 -0.34424,-1.61156 -0.79883,-1.52344 z m 134.72071,7.75586 c -0.4277,0.0572 -0.97507,0.46887 -1.85547,1.26562 -2.28169,2.0649 -4.24826,7.92527 -3.40039,10.13477 0.30084,0.784 1.16448,1.42578 1.91796,1.42578 2.94309,0 6.33376,-9.06414 4.47461,-11.96094 -0.40142,-0.6255 -0.70902,-0.92239 -1.13671,-0.86523 z m -144.64649,7.93164 c -1.53516,0.10564 -3.03201,1.0959 -4.44922,2.9707 -1.27933,1.6924 -3.33867,4.18928 -4.57617,5.54688 -2.26429,2.4841 -2.81756,4.47743 -1.58398,5.71093 1.24462,1.2447 2.97901,0.672 5.23046,-1.7246 1.23484,-1.31441 4.27953,-2.9583 6.76563,-3.6543 5.46803,-1.531 6.34212,-3.25806 3.29101,-6.50586 -1.56827,-1.66935 -3.14257,-2.44939 -4.67773,-2.34375 z m 121.92188,15.44726 c -2.79724,-0.01 -5.65028,0.90912 -9.44727,2.66993 -7.21297,3.345 -7.68219,5.34948 -1,4.27148 10.06639,-1.624 13.25738,-1.12494 24.55664,3.84766 7.28451,3.2058 11.52184,4.54834 13,4.11914 1.20612,-0.3502 6.4292,-2.19547 11.60742,-4.10156 10.53809,-3.8789 12.46919,-3.70116 17.56641,1.61914 3.68982,3.8514 2.83477,5.8913 -5.25781,12.5664 -7.09,5.8482 -9.58467,6.5207 -13.33789,3.5957 -4.04374,-3.15139 -8.64296,-5.14062 -11.88282,-5.14062 -6.02375,0 -14.97129,11.48515 -14.99609,19.24805 -0.008,2.4963 6.8946,9.8066 10.80469,11.4434 3.11238,1.3029 3.62791,1.2044 8.62109,-1.6524 6.09652,-3.48799 11.27414,-3.91622 15.70508,-1.29882 4.03024,2.38072 4.62432,5.56252 1.93164,10.35352 -1.34815,2.3987 -1.74379,3.9062 -1.02539,3.9062 1.19162,0 4.47784,-3.6527 6.67187,-7.416 1.52609,-2.6176 1.64846,-9.2416 0.1875,-10.1445 -0.60378,-0.3732 -2.38742,-2.71111 -3.96289,-5.19531 -3.4387,-5.4223 -3.21829,-6.06714 5.03516,-14.74414 5.97474,-6.2813 8.6391,-11.91495 7.59766,-16.06445 -0.37023,-1.4751 -2.50729,-3.64644 -5.34375,-5.42774 -6.72542,-4.2235 -11.92106,-4.07348 -20.73438,0.60352 -9.11134,4.8352 -13.05721,4.46788 -23.90039,-2.22852 -5.29562,-3.27037 -8.80004,-4.81776 -12.39648,-4.83008 z m -42.06446,0.46485 c -3.07457,-0.0297 -6.43944,0.16356 -7.58593,0.60351 -0.8891,0.3412 -3.01068,2.64615 -4.71485,5.12305 -2.99725,4.3564 -3.08192,4.77451 -2.58203,12.78711 0.28422,4.5558 0.84496,8.81389 1.24609,9.46289 1.64778,2.6662 2.19244,-0.96428 1.25,-8.33398 -1.3286,-10.3895 -0.12384,-12.17736 10.55079,-15.66016 4.21426,-1.375 7.67229,-2.8375 7.68359,-3.25 0.0123,-0.4509 -2.77308,-0.70273 -5.84766,-0.73242 z m -94.08984,1.98242 c -1.71339,0 -2.03149,1.76495 -0.54102,3.00195 0.94347,0.783 1.25746,2.10525 0.86914,3.65235 -0.40186,1.6012 -0.005,3.09322 1.16602,4.38672 2.11763,2.34 4.46289,2.56338 4.46289,0.42578 0,-2.1538 -4.83796,-11.4668 -5.95703,-11.4668 z m 94.30859,7.35156 c -0.9436,0.11216 -1.43907,1.80099 -0.84961,3.65821 0.34756,1.0951 1.05152,1.99023 1.56446,1.99023 1.21393,0 1.21535,-4.70713 0.002,-5.45703 -0.25772,-0.15928 -0.49904,-0.21729 -0.7168,-0.19141 z M 310.25,949.93625 c -0.44406,0.006 -0.94733,0.0213 -1.51758,0.041 -2.63848,0.0912 -5.8941,0.88351 -7.23437,1.76171 -2.53091,1.6583 -4.13828,5.68013 -3.00391,7.51563 0.82784,1.3396 4.21879,1.37754 5.03516,0.0566 0.33992,-0.55 2.33731,-1 4.4375,-1 4.48253,0 6.33197,-1.78875 5.88477,-5.68945 -0.26819,-2.33844 -0.49316,-2.72993 -3.60157,-2.68555 z m -73.75586,2.53125 c -0.38987,-0.0143 -0.77274,-10e-4 -1.16406,0.0312 -4.88227,0.4026 -4.62091,2.11787 0.45508,2.98438 5.66002,0.9662 9.71435,2.85433 18.62305,8.67773 8.874,5.8007 12.28715,6.38146 18.59375,3.16406 5.6241,-2.8692 6.30632,-4.51177 1.42187,-3.42187 -8.98271,2.0044 -12.20046,1.28103 -24.09375,-5.41407 -8.07375,-4.54501 -11.10682,-5.92141 -13.83594,-6.02148 z m -66.43164,0.78711 2.31836,2.31836 c 1.46528,1.4653 2.56157,4.08167 2.97656,7.10937 0.71514,5.2174 -0.25732,8.07253 -3.69531,10.85743 -2.52492,2.0452 -5.26789,2.18016 -8.44336,0.41796 -2.71924,-1.5089 -6.17459,-6.43681 -6.18359,-8.82031 -0.01,-2.5108 4.73928,-7.65504 9.13672,-9.89844 l 3.89062,-1.98437 z m 54.95508,0.44726 c -0.4682,-0.0104 -1.06996,0.0794 -1.80469,0.27149 -2.4146,0.6315 -7.18359,8.71854 -7.18359,12.18164 0,2.0437 2.32795,8.16415 3.57812,9.40625 1.27882,1.2706 5.10966,0.83067 6.41016,-0.73633 1.0215,-1.2308 0.61291,-2.03659 -2.37695,-4.68359 -1.98628,-1.7585 -3.61133,-3.97312 -3.61133,-4.91992 0,-0.9467 1.59745,-3.6312 3.54883,-5.9668 2.99419,-3.58386 3.46832,-5.50742 1.43945,-5.55274 z m 61.62305,0.99219 c -0.3586,0.0159 -0.61133,0.41547 -0.61133,1.0586 0,0.8574 0.45,1.55859 1,1.55859 0.55,0 1,-0.42381 1,-0.94141 0,-0.5175 -0.45,-1.21869 -1,-1.55859 -0.1375,-0.085 -0.26914,-0.12248 -0.38867,-0.11719 z m -83.94336,4.61719 c -1.67923,0 -2.66797,2.0941 -2.66797,5.6543 0,1.8326 0.46285,2.40405 1.75,2.16015 2.29364,-0.4347 3.16059,-7.81445 0.91797,-7.81445 z m -107.12891,3 c -1.8131,0 0.0244,2.24944 3.21094,3.93164 4.29159,2.2656 5.25,2.46379 5.25,1.08789 0,-0.8569 -7.01685,-5.01953 -8.46094,-5.01953 z m 193.83399,2.07812 c -1.5518,0.24771 -10.37305,8.08158 -10.37305,9.35743 0,0.8471 0.439,0.73328 5.38477,-1.38672 4.44482,-1.9053 6.74609,-5.40992 5.19726,-7.91602 -0.0341,-0.0551 -0.10553,-0.0712 -0.20898,-0.0547 z m -234.81836,4.2793 c -4.20385,0.12126 -7.03682,1.19364 -7.37696,2.95899 -0.17731,0.9203 0.42957,4.26253 1.34961,7.42774 1.90297,6.5468 6.96908,12.1786 12.56446,13.9648 5.15765,1.6464 7.38918,1.4873 10.20117,-0.7246 3.96903,-3.1221 5.22191,-8.0967 3.14258,-12.4785 -2.87262,-6.05359 -8.6982,-10.23145 -15.26172,-10.94335 -1.66405,-0.18048 -3.21786,-0.2455 -4.61914,-0.20508 z m 7.34765,5.5 c 1.09488,0.0329 2.15845,0.16528 3.09766,0.4082 7.83332,2.026 9.63376,10.80373 2.92773,14.27153 -4.09404,2.1171 -7.68017,1.8022 -10.39648,-0.9141 -2.99151,-2.9915 -5.32391,-10.2289 -3.79102,-11.76172 1.31428,-1.3143 4.87749,-2.10248 8.16211,-2.00391 z m 24.67188,1.14258 c -2.28992,0 -8.0229,5.46605 -7.17383,6.83985 0.8446,1.3666 3.3103,0.2875 5.70899,-2.4981 2.7102,-3.14725 3.11277,-4.34175 1.46484,-4.34175 z m 125.89062,0.49023 c -0.17295,0.0156 -0.28483,0.77227 -0.26953,2.00972 0.0204,1.65 0.24451,2.2034 0.49805,1.2305 0.25349,-0.973 0.23681,-2.32298 -0.0371,-2.99998 -0.0685,-0.16928 -0.13375,-0.24543 -0.19141,-0.24024 z m 48.83985,8.30272 c -2.23231,-0.1075 -4.71776,1.3152 -9.41992,4.6934 -5.94787,4.2732 -11.44711,7.0664 -15.73438,7.9922 -2.23787,0.4833 -3.01555,1.0567 -2.3457,1.7265 1.75349,1.7535 11.30743,-1.0457 17.68945,-5.1816 3.30298,-2.1406 7.1789,-4.1778 8.61328,-4.5293 3.80579,-0.9325 8.52052,1.4497 15.82031,7.9941 7.86547,7.0515 11.88317,8.8883 17.39454,7.9571 6.45116,-1.0899 14.70186,-4.2267 18.26367,-6.9434 1.8023,-1.3746 4.37254,-2.9149 5.71094,-3.4238 0.70141,-0.2667 1.63661,-0.386 2.67382,-0.3946 l 0,-3.207 c -0.69395,0.1667 -1.41758,0.2993 -2.1914,0.4043 -4.1419,0.562 -6.5626,1.6219 -9.88282,4.3281 -6.77646,5.5231 -16.26061,7.3375 -23.20117,4.4375 -1.78226,-0.7446 -6.02529,-3.6703 -9.42773,-6.5019 -3.40244,-2.8315 -7.809,-6.2514 -9.79297,-7.5977 -1.58309,-1.0743 -2.83054,-1.6894 -4.16992,-1.7539 z m -172.23242,0.207 c -1.50343,0 -5.1033,5.1408 -4.39844,6.2813 0.38491,0.6228 1.59411,-0.053 2.98633,-1.6719 2.44553,-2.8431 2.98644,-4.6094 1.41211,-4.6094 z m 91.24023,10.8946 c -0.80151,-0.069 -2.23865,0.3091 -4.17188,1.2656 -9.54686,4.7239 -22.68884,25.3406 -22.58984,35.4375 0.0924,9.4245 5.88324,14.3847 18.94922,16.2324 3.85,0.5444 8.125,1.4529 9.5,2.0176 3.56319,1.4631 5,1.3696 5,-0.3223 0,-1.9077 -3.29746,-3.5243 -15.19727,-7.4531 -12.4201,-4.1006 -14.80273,-5.9149 -14.80273,-11.2754 0,-8.0572 11.58833,-25.6494 21.38672,-32.4648 2.83309,-1.9706 3.26164,-3.3229 1.92578,-3.4375 z m -145.34766,1.1054 c -1.57417,0 -1.09946,3.1929 0.78516,5.2813 1.47796,1.6377 1.79796,1.6968 2.0625,0.3809 0.38084,-1.8943 -1.51398,-5.6622 -2.84766,-5.6622 z m 86.58008,1.8809 c -0.18423,0 -0.69899,0.5691 -1.43359,1.6191 -1.22025,1.7441 -2.10147,4.5698 -2.10547,6.75 -0.004,2.0625 0.43015,3.75 0.96289,3.75 0.53273,0 0.72513,-0.6332 0.42773,-1.4082 -0.49476,-1.2893 0.26893,-4.9633 2.09961,-10.0918 0.14993,-0.42 0.15937,-0.621 0.0488,-0.6191 z m 68.95508,2.1191 c -0.83333,0 -1.5,0.8889 -1.5,2 0,1.1111 0.66667,2 1.5,2 0.83333,0 1.5,-0.8889 1.5,-2 0,-1.1111 -0.66667,-2 -1.5,-2 z m -151.9668,7.4766 c -0.19416,-0.025 -0.34213,0 -0.42578,0.084 -0.33459,0.3361 0.46975,1.4844 1.78516,2.5508 1.31542,1.0664 2.66542,1.6642 3,1.3281 0.33459,-0.3361 -0.46975,-1.4844 -1.78516,-2.5508 -0.98656,-0.7998 -1.99172,-1.3359 -2.57422,-1.4121 z m 41.42383,2.6406 c -1.8504,-0.067 -3.77157,0.6782 -6.30273,2.1485 -3.89002,2.2596 -7.62105,7.1015 -6.40821,8.3144 0.36305,0.363 2.87976,-0.9701 5.5918,-2.9609 3.06158,-2.2474 6.06114,-3.6192 7.91211,-3.6192 3.48009,0 7.83285,3.0948 8.82617,6.2754 0.382,1.2231 1.82664,4.6996 3.21094,7.7246 3.04776,6.6601 4.11603,4.6203 1.7832,-3.4043 -1.24101,-4.269 -2.65254,-6.3832 -6.67969,-10.0039 -3.29165,-2.9594 -5.5545,-4.3887 -7.93359,-4.4746 z m -76.53906,3.8828 c -3.04879,0 -3.1743,1.7159 -0.16797,2.295 4.03646,0.7774 5.75,0.7214 5.75,-0.1875 0,-1.1557 -2.52038,-2.1075 -5.58203,-2.1075 z m 253.73828,1.2481 c -8.72732,-0.042 -7.09142,0.9779 4.84375,2.7051 10.89339,1.5764 13.9929,2.9249 18.67969,8.1269 2.10093,2.3319 5.17031,5.066 6.82031,6.0762 4.92552,3.0156 6.94328,2.516 15.79688,-3.9121 2.63834,-1.9155 4.55634,-3.7249 4.26171,-4.0195 -0.29463,-0.2946 -3.44083,0.9395 -6.99218,2.7421 -8.13457,4.1289 -10.2048,3.7001 -17.54493,-3.6406 -3.03677,-3.0371 -6.40764,-5.9967 -7.49023,-6.5762 -1.0826,-0.5796 -7.3826,-1.2183 -14,-1.4179 -1.66991,-0.05 -3.12824,-0.078 -4.375,-0.084 z m -19.26172,1.8223 c -1.42983,-0.045 -3.89453,1.2887 -3.89453,2.4043 0,0.8499 0.73595,1.1451 2.01562,0.8105 2.15239,-0.5629 3.52362,-2.08 2.66016,-2.9434 -0.17682,-0.1768 -0.45129,-0.261 -0.78125,-0.2714 z m -16.87305,4.3086 c -2.69538,-0.01 -7.67513,2.4025 -11.9414,6.2382 -5.93172,5.3331 -6.49252,8.4216 -2.88086,15.8555 3.49145,7.1864 5.17896,6.0621 4.33984,-2.8926 -0.86888,-9.2722 -0.004,-11.02 7.04688,-14.248 2.9778,-1.3633 5.41406,-2.8685 5.41406,-3.3457 0,-1.0983 -0.75334,-1.6033 -1.97852,-1.6074 z m -91.95507,1.121 -0.0332,2.668 c -0.0183,1.4675 0.24708,3.3998 0.58985,4.293 0.34276,0.8932 1.13026,1.4543 1.75,1.248 1.93226,-0.6433 1.79776,-3.2809 -0.29688,-5.7968 l -2.00976,-2.4122 z m 95.93359,9.5 c -0.55,0 -1,0.45 -1,1 0,0.55 0.45,1 1,1 0.55,0 1,-0.45 1,-1 0,-0.55 -0.45,-1 -1,-1 z m -95.61133,3.3829 c -0.11953,-0.01 -0.25117,0.032 -0.38867,0.1171 -0.55,0.3399 -1,1.0411 -1,1.5586 0,0.5176 0.45,0.9414 1,0.9414 0.55,0 1,-0.7011 1,-1.5585 0,-0.6435 -0.25273,-1.0429 -0.61133,-1.0586 z m -104.38867,3.6171 c -0.55,0 -1,0.9 -1,2 0,1.1 0.45,2 1,2 0.55,0 1,-0.9 1,-2 0,-1.1 -0.45,-2 -1,-2 z m -7.39648,4.5704 c -0.55681,0.1102 -1.39505,0.9885 -2.44727,2.6503 -1.49493,2.3611 -1.75003,3.5633 -0.96289,4.5118 1.50996,1.8194 3.47827,-0.041 4.03125,-3.8086 0.34742,-2.3672 0.0948,-3.4953 -0.62109,-3.3535 z m 267.96875,1.123 -11.53711,2.7949 c -7.72337,1.8722 -12.47772,3.4204 -14.07422,4.5625 l 9.66015,0 c 4.23892,-0.7088 10.51248,-1.3032 14.87891,-1.3808 5.97948,-0.1065 8.37902,0.022 12.32031,1.3808 l 10.40625,0 c -0.9677,-0.5235 -6.22022,-2.3886 -11.6914,-4.1504 l -9.96289,-3.207 z m -226.24219,1.4668 c -0.21745,-0.045 -0.28548,0.2828 -0.29883,0.9668 -0.0319,1.6334 0.41165,3.3051 1.2207,4.9238 l 2.19336,0 c -0.23422,-0.4001 -0.37879,-0.7759 -0.39062,-1.1093 -0.0304,-0.8573 -0.71593,-2.4323 -1.52344,-3.5 -0.61685,-0.8156 -0.98372,-1.2359 -1.20117,-1.2813 z m 65.66992,1.8398 c -0.55,0 -1,0.675 -1,1.5 0,0.825 0.45,1.5 1,1.5 0.55,0 1,-0.675 1,-1.5 0,-0.825 -0.45,-1.5 -1,-1.5 z m -100.48242,2.0879 c -0.57797,-0.071 -1.81347,0.5666 -4.08789,1.9629 l 3.99219,0 c 0.3776,-0.4011 0.57812,-0.7617 0.57812,-1.0742 0,-0.5394 -0.12194,-0.8445 -0.48242,-0.8887 z m 100.48242,1.9121 c -0.0661,0 -0.13077,0.019 -0.19336,0.051 l 0.34375,0 c -0.0493,-0.025 -0.099,-0.051 -0.15039,-0.051 z"
       style="fill:#869651;opacity:0.1" />
  </g>
</svg>
